<?xml version="1.0" encoding="UTF-8"?><svg id="Calque_2" xmlns="http://www.w3.org/2000/svg" viewBox="0 0 69.6 46.34"><g id="Calque_1-2"><g id="bat"><path d="M0,0l18.2,3.6c3.47,1.27,5.93,3.52,7.4,6.75l6.2,11.8c.43,1.43.43,2.8,0,4.1-.97,1.63-2.47,2.42-4.5,2.35-1.63-.07-2.88-.93-3.75-2.6-4.1-6.07-11.32-9.4-21.65-10C3.67,10.53,3.03,5.2,0,0" fill="#646464"/><path d="M39.25,20.5l3.55-.25.55.1.45.1h.2l.95.2c1.77.47,3.35,1.07,4.75,1.8l3.1,2.05c2.47,2.03,3.48,4.13,3.05,6.3l-.55,1.65-.7.85-8.4,11.85c-.93,1.33-2.07,1.55-3.4.65l-15.2-7.25-1.35-.55-1.05-.65c-2.27-1.57-3.65-3.68-4.15-6.35-.57-2.67-.05-5.15,1.55-7.45.53-.83,1.17-1.53,1.9-2.1,1.17-.93,2.52-1.57,4.05-1.9l.2-.05v-.05l.4-.05h.55l.2-.05,1.05.05c1.93-.07,3.72.12,5.35.55l2.3.85.65-.3" fill="#585858"/><path d="M33.05,28.65c0,.77-.3,1.45-.9,2.05-.57.57-1.25.85-2.05.85s-1.48-.28-2.05-.85c-.6-.6-.9-1.28-.9-2.05,0-.83.3-1.53.9-2.1.57-.57,1.25-.85,2.05-.85s1.48.28,2.05.85c.6.57.9,1.27.9,2.1" fill="#414141"/><path d="M25.15,38.7c-.57.8-1.12.8-1.65,0l-1.4-4.55c-.13-.7.18-1.15.95-1.35h2.7c.77.17,1,.67.7,1.5l-1.3,4.4" fill="#e5e5e5"/><path d="M69.6.4c-3.03,5.2-3.67,10.53-1.9,16-10.33.6-17.55,3.93-21.65,10-.87,1.67-2.12,2.53-3.75,2.6-2.03.07-3.53-.72-4.5-2.35-.43-1.3-.43-2.67,0-4.1l6.2-11.8c1.47-3.23,3.93-5.48,7.4-6.75L69.6.4" fill="#6d6d6d"/></g></g></svg>