<?xml version="1.0" encoding="UTF-8"?><svg id="Calque_2" xmlns="http://www.w3.org/2000/svg" viewBox="0 0 86.7 36.37"><g id="Calque_1-2"><g id="bat_fly"><path d="M37.95,17.32c-1.47.8-2.98.68-4.55-.35-6.6-3.2-14.52-2.48-23.75,2.15C8.45,13.52,5.23,9.22,0,6.22L17.55.22c3.63-.63,6.88.08,9.75,2.15l11.3,7.15c1.1,1.03,1.78,2.22,2.05,3.55-.03,1.9-.93,3.32-2.7,4.25" fill="#646464"/><path d="M52.05,10.37l.45.1h.2l.95.2c1.77.47,3.35,1.07,4.75,1.8,1.17.6,2.2,1.28,3.1,2.05,2.47,2.03,3.48,4.13,3.05,6.3l-.55,1.65-.7.85-8.4,11.85c-.93,1.33-2.07,1.55-3.4.65l-15.2-7.25-1.35-.55-1.05-.65c-2.27-1.57-3.65-3.68-4.15-6.35-.57-2.67-.05-5.15,1.55-7.45.53-.83,1.17-1.53,1.9-2.1,1.17-.93,2.52-1.57,4.05-1.9l.2-.05v-.05l.4-.05h.55l.2-.05,1.05.05,5.35.55c.8.2,1.57.48,2.3.85.2-.13.42-.23.65-.3l3.55-.25.55.1" fill="#585858"/><path d="M41.75,18.67c0,.77-.3,1.45-.9,2.05-.57.57-1.25.85-2.05.85s-1.48-.28-2.05-.85c-.6-.6-.9-1.28-.9-2.05,0-.83.3-1.53.9-2.1.57-.57,1.25-.85,2.05-.85s1.48.28,2.05.85c.6.57.9,1.27.9,2.1" fill="#414141"/><path d="M35.15,24.32l-1.3,4.4c-.57.8-1.12.8-1.65,0l-1.4-4.55c-.13-.7.18-1.15.95-1.35h2.7c.77.17,1,.67.7,1.5" fill="#e5e5e5"/><path d="M48.75,18.02c-1.77-.97-2.67-2.38-2.7-4.25.27-1.37.95-2.55,2.05-3.55l11.3-7.15c2.87-2.07,6.12-2.78,9.75-2.15l17.55,6c-5.23,2.97-8.45,7.27-9.65,12.9-9.23-4.63-17.15-5.37-23.75-2.2-1.57,1.03-3.08,1.17-4.55.4" fill="#6d6d6d"/></g></g></svg>