<?xml version="1.0" encoding="UTF-8"?><svg id="Calque_2" xmlns="http://www.w3.org/2000/svg" viewBox="0 0 37.25 48.15"><g id="Calque_1-2"><g id="bat_hang"><path d="M13.37,1.65l1.75.15.95.45,13.65,5.05c1.53.57,2.03,1.6,1.5,3.1l-3.05,16.55-.2,1.45-.35,1.2c-.93,2.6-2.62,4.47-5.05,5.6-2.43,1.27-4.97,1.42-7.6.45-.93-.3-1.78-.72-2.55-1.25-1.2-.9-2.15-2.03-2.85-3.4l-.1-.2h-.05l-.15-.4-.15-.55-.1-.15-.2-1.05c-.57-1.83-.85-3.58-.85-5.25-.03-.83.03-1.67.2-2.5l-.45-.5c-.63-1-1.03-2.13-1.2-3.4l-.05-.5v-.5l-.05-.2-.05-.95c0-1.83.18-3.52.55-5.05.27-1.3.65-2.48,1.15-3.55,1.3-2.9,3.07-4.43,5.3-4.6" fill="#585858"/><path d="M19.37,24.6c.73.4,1.2,1,1.4,1.8.2.77.1,1.48-.3,2.15-.43.77-1.02,1.25-1.75,1.45-.83.2-1.58.07-2.25-.4-.7-.37-1.15-.93-1.35-1.7-.2-.8-.12-1.55.25-2.25.4-.7,1.02-1.15,1.85-1.35.73-.2,1.45-.1,2.15.3" fill="#414141"/><path d="M24.37,29.15l4.6.15c.9.33,1.03.87.4,1.6l-4.05,2.5c-.63.33-1.13.15-1.5-.55l-.7-2.6c-.03-.8.38-1.17,1.25-1.1" fill="#e5e5e5"/><path d="M24.22,0c1.37.27,2.55.95,3.55,2.05l7.1,11.3c2.07,2.87,2.78,6.12,2.15,9.75l-5.95,17.55c-2.97-5.23-7.27-8.45-12.9-9.65,4.63-9.23,5.35-17.15,2.15-23.75-1-1.57-1.13-3.08-.4-4.55,1-1.77,2.43-2.67,4.3-2.7" fill="#6d6d6d"/><path d="M17.32,10.2c.73,1.47.6,2.98-.4,4.55-3.2,6.6-2.48,14.52,2.15,23.75-5.63,1.2-9.93,4.42-12.9,9.65L.22,30.6c-.63-3.63.08-6.88,2.15-9.75l7.1-11.3c1-1.1,2.18-1.78,3.55-2.05,1.87.03,3.3.93,4.3,2.7" fill="#6d6d6d"/></g></g></svg>