<?xml version="1.0" encoding="UTF-8"?><svg id="Calque_2" xmlns="http://www.w3.org/2000/svg" viewBox="0 0 64 64"><g id="Calque_1-2"><g id="cactus_side"><path d="M32,23.05v-13.65h-4.35v50.6h4.35V23.05M21.35,4h-4.35v42.1h4.35V4M13.2,0h25.65v19.6h4.35V0h17.05l3.75,6.4-3.75,6.35,3.75,6.45-3.75,6.35,3.75,6.45-3.75,6.35,3.75,6.45-3.75,6.35,3.75,6.45-3.75,6.35h3.75v.05h-8.8v-17.25h-4.35v17.25h-29.5v-9.55h-4.35v9.55H0v-.05h3.75l-3.75-6.35,3.75-6.45-3.75-6.35,3.75-6.45-3.75-6.35,3.75-6.45-3.75-6.35,3.75-6.45L0,6.4,3.75,0h5.1v42.8h4.35V0M43.2,47v-14.7h-4.35v22.4h4.35v-7.7M50.85,31.4v7.7h4.35V6.8h-4.35v24.6" fill="#27ae60"/><path d="M50.85,31.4h4.35v7.7h-4.35v-7.7M27.65,23.05v-13.65h4.35v13.65h-4.35M60.25,0h3.75v63.95h-3.75l3.75-6.35-3.75-6.45,3.75-6.35-3.75-6.45,3.75-6.35-3.75-6.45,3.75-6.35-3.75-6.45,3.75-6.35-3.75-6.4M0,63.95V0h3.75L0,6.4l3.75,6.35-3.75,6.45,3.75,6.35-3.75,6.45,3.75,6.35-3.75,6.45,3.75,6.35-3.75,6.45,3.75,6.35H0M8.85,19.6h4.35v13.65h-4.35v-13.65M43.2,47v7.7h-4.35v-7.7h4.35M50.85,54.45v-7.7h4.35v7.7h-4.35" fill="#29bb67"/><path d="M50.85,54.45h4.35v9.55h-4.35v-9.55M32,23.05v36.95h-4.35V23.05h4.35M21.35,4v42.1h-4.35V4h4.35M8.85,0h4.35v19.6h-4.35V0M38.85,0h4.35v19.6h-4.35V0M21.35,64h-4.35v-9.55h4.35v9.55M13.2,33.25v9.55h-4.35v-9.55h4.35M38.85,47v-14.7h4.35v14.7h-4.35M50.85,31.4V6.8h4.35v24.6h-4.35" fill="#24a159"/></g></g></svg>