<?xml version="1.0" encoding="UTF-8"?><svg id="Calque_2" xmlns="http://www.w3.org/2000/svg" viewBox="0 0 64 64.05"><g id="Calque_1-2"><g id="cactus_top"><path d="M0,64V0h63.95v.05h.05v63.95h-6.45l6.45-6.35-3.75-6.45,3.75-6.35-3.75-6.45,3.75-6.35-3.75-6.45,3.75-6.35-3.75-6.45,3.75-6.35L57.65.05l-.1-.05-.05.05-6.3,3.7L44.85.05l-.1-.05-.05.05-6.3,3.7L32.05.05l-.1-.05-.05.05-6.3,3.7L19.25.05l-.1-.05-.05.05-6.3,3.7L6.45.05l-.1-.05-.05.05L0,6.45l3.75,6.35-3.75,6.45,3.75,6.35-3.75,6.45,3.75,6.35-3.75,6.45,3.75,6.35-3.75,6.45,6.35,6.35H0M19.35,32.05h-5.35v-5.35h5.35v5.35M46.25,25.9h-5.35v-5.35h5.35v5.35M57.55,64H6.35c2.17-1.23,4.32-2.48,6.45-3.75l6.35,3.75,6.45-3.75,6.35,3.75,6.45-3.75,6.35,3.75,6.45-3.75,6.35,3.75M23.4,56.4h-5.35v-5.35h5.35v5.35" fill="#29bb67"/><path d="M23.4,56.4v-5.35h-5.35v5.35h5.35M64,64v.05H0v-.05h6.35l-6.35-6.35,3.75-6.45-3.75-6.35,3.75-6.45-3.75-6.35,3.75-6.45-3.75-6.35,3.75-6.45L0,6.45,6.3.05h.15l6.35,3.7L19.1.05h.15l6.35,3.7L31.9.05h.15l6.35,3.7L44.7.05h.15l6.35,3.7L57.5.05h.15l6.35,6.4-3.75,6.35,3.75,6.45-3.75,6.35,3.75,6.45-3.75,6.35,3.75,6.45-3.75,6.35,3.75,6.45-6.45,6.35h6.45M54.65,11h-5.35v5.35h5.35v-5.35M55.75,39.5h-5.35v5.35h5.35v-5.35M18.05,10.55h-5.35v5.35h5.35v-5.35M25.3,19.25v5.35h5.35v-5.35h-5.35M14,39h-5.35v5.35h5.35v-5.35M57.55,64l-6.35-3.75-6.45,3.75-6.35-3.75-6.45,3.75-6.35-3.75-6.45,3.75-6.35-3.75c-2.13,1.27-4.28,2.52-6.45,3.75h51.2M46.25,25.9v-5.35h-5.35v5.35h5.35M19.35,32.05v-5.35h-5.35v5.35h5.35M36.65,49.25v5.35h5.35v-5.35h-5.35" fill="#27ae60"/><path d="M36.65,49.25h5.35v5.35h-5.35v-5.35M54.65,11v5.35h-5.35v-5.35h5.35M55.75,39.5v5.35h-5.35v-5.35h5.35M18.05,10.55v5.35h-5.35v-5.35h5.35M14,39v5.35h-5.35v-5.35h5.35M25.3,19.25h5.35v5.35h-5.35v-5.35" fill="#24a159"/></g></g></svg>