<?xml version="1.0" encoding="UTF-8"?><svg id="Calque_2" xmlns="http://www.w3.org/2000/svg" viewBox="0 0 64 64"><g id="Calque_1-2"><g id="cotton_green"><path d="M23.65,0h3.45l.3,3.95-3.4.3-.35-4.25M37.9,0h3.4l-.3,4.65-3.4-.25.3-4.4M49.85,0h3.45l.3,4.15-3.4.3-.35-4.45M64,6.4v3.45l-5.4-.55.3-3.4,5.1.5M64,19.8v3.4l-4.9.55-.35-3.4,5.25-.55M64,32.95v3.45l-4.6-.45.3-3.4,4.3.4M64,45.65v3.45l-4.9.3-.2-3.4,5.1-.35M64,57.85v3.45l-5.05-.65.4-3.4,4.65.6M53.3,64h-3.45l-.35-4.8,3.4-.25.4,5.05M41.3,64h-3.4l.3-4.8,3.45.2-.35,4.6M27.1,64h-3.45l-.4-5,3.4-.25.45,5.25M14.25,64h-3.4l.35-5.6,3.4.2-.35,5.4M0,61.3v-3.45l4.55.55-.4,3.4-4.15-.5M0,49.1v-3.45l4.15-.3.2,3.45-4.35.3M0,36.4v-3.45l4.9.45-.3,3.4-4.6-.4M0,23.2v-3.4l3.95-.45.35,3.4-4.3.45M0,9.25v-2.85l4.1.35-.3,3.45-3.6-.3-.15-.65h-.05M10.85,0h3.4l-.25,3.9-3.4-.25.25-3.65" fill="#2dc66e"/><path d="M10.85,0l-.25,3.65,3.4.25.25-3.9h9.4l.35,4.25,3.4-.3-.3-3.95h10.8l-.3,4.4,3.4.25.3-4.65h8.55l.35,4.45,3.4-.3-.3-4.15h10.7v6.4l-5.1-.5-.3,3.4,5.4.55v.6l-7.5,1.8,1.75,7.55,5.75-1.3v1.3l-5.25.55.35,3.4,4.9-.55v9.75l-4.3-.4-.3,3.4,4.6.45v2l-3.35.4.65,5.4,2.7-.3v1.75l-5.1.35.2,3.4,4.9-.3v8.75l-4.65-.6-.4,3.4,5.05.65v2.7h-10.7l-.4-5.05-3.4.25.35,4.8h-8.55l.35-4.6-3.45-.2-.3,4.8h-10.8l-.45-5.25-3.4.25.4,5h-9.4l.35-5.4-3.4-.2-.35,5.6H0v-2.7l4.15.5.4-3.4-4.55-.55v-8.75l4.35-.3-.2-3.45-4.15.3v-1.75l2.7-.35-.65-5.4-2.05.25v-2l4.6.4.3-3.4-4.9-.45v-9.75l4.3-.45-.35-3.4-3.95.45v-2.5l1.85-.45L.2,9.9l3.6.3.3-3.45-4.1-.35V0h10.85M8.9,12.35l4.95-2.25-2.2-4.9-5,2.2,2.25,4.95M42,8.45l-3.2,4.45,4.45,3.15,3.15-4.4-4.4-3.2M4,50.35l.85,5.35,5.35-.85-.85-5.35-5.35.85M54.15,23.8l-3.95-3.75-3.75,3.95,3.95,3.75,3.75-3.95M18.15,31.7l2.55-9.9-9.85-2.55-2.55,9.85,9.85,2.6M10.95,35.2l-3.2,4.35,4.4,3.2,3.15-4.4-4.35-3.15M44.65,29.65l-4.2,3.45,3.45,4.2,4.25-3.45-3.5-4.2M27.9,38.45l7.4-2.35-2.35-7.45-7.45,2.35,2.4,7.45M60.7,50.05l-5.45-.55-.55,5.45,5.4.55.6-5.45M17.5,55.6l9.7,2.15,2.2-9.75-9.75-2.2-2.15,9.8M37.05,46.1l-4.9,2.25,2.2,4.95,4.95-2.2-2.25-5" fill="#27ae60"/><path d="M37.05,46.1l2.25,5-4.95,2.2-2.2-4.95,4.9-2.25M64,10.45v8.05l-5.75,1.3-1.75-7.55,7.5-1.8M64,38.4v5.5l-2.7.3-.65-5.4,3.35-.4M0,43.9v-5.5l2.05-.25.65,5.4-2.7.35M0,17.3v-8.05h.05l.15.65,1.65,6.95-1.85.45M8.9,12.35l-2.25-4.95,5-2.2,2.2,4.9-4.95,2.25M42,8.45l4.4,3.2-3.15,4.4-4.45-3.15,3.2-4.45M4,50.35l5.35-.85.85,5.35-5.35.85-.85-5.35M54.15,23.8l-3.75,3.95-3.95-3.75,3.75-3.95,3.95,3.75M60.7,50.05l-.6,5.45-5.4-.55.55-5.45,5.45.55M27.9,38.45l-2.4-7.45,7.45-2.35,2.35,7.45-7.4,2.35M44.65,29.65l3.5,4.2-4.25,3.45-3.45-4.2,4.2-3.45M10.95,35.2l4.35,3.15-3.15,4.4-4.4-3.2,3.2-4.35M18.15,31.7l-9.85-2.6,2.55-9.85,9.85,2.55-2.55,9.9M17.5,55.6l2.15-9.8,9.75,2.2-2.2,9.75-9.7-2.15" fill="#25a75c"/></g></g></svg>