<?xml version="1.0" encoding="UTF-8"?><svg id="Calque_2" xmlns="http://www.w3.org/2000/svg" viewBox="0 0 40.36 60.41"><g id="Calque_1-2"><g id="foliagePack_002"><g id="Layer0_75_FILL"><path d="M20.81,31.56c-1,1-2,1-3,0l-1.15-1.15c.02,4.33.03,8.64.05,12.95.03,1.27.1,2.52.2,3.75,1.1.83,2.2,1.83,3.3,3,.8-.87,1.62-1.63,2.45-2.3-.2-1.47-.35-2.95-.45-4.45-.06-4.35-.11-8.72-.15-13.1l-1.25,1.3M39.96,47.66c.03-.07.07-.12.1-.15-.17-.3-.4-.5-.7-.6-3.2-1.4-6.3-1.78-9.3-1.15-2.47.53-4.87,1.73-7.2,3.6-.87.73-1.75,1.55-2.65,2.45v8.6h9.15l10.6-12.75Z" fill="#76af1c"/><path d="M16.66,21.96c-.56-.29-1.09-.69-1.6-1.2-.87-.87-1.42-1.89-1.65-3.05h-3.95c-1.4,0-2.1.7-2.1,2.1v1.3l-.05,5.35c.03,1.37.73,2.07,2.1,2.1h6.7c.21,0,.39-.02.55-.05,1.03-.17,1.55-.86,1.55-2.05l-.05-4c-.5-.09-1-.26-1.5-.5M31.26,21.11v-1.3c0-1.4-.7-2.1-2.1-2.1h-4.05c-.2,1.17-.74,2.19-1.6,3.05-.45.45-.93.81-1.45,1.1-.51.27-1.06.45-1.65.55l.05,4c-.03,1.26.5,1.94,1.6,2.05.16.04.33.05.5.05h1.3l5.25.05c1.43-.03,2.15-.75,2.15-2.15v-5.3M16.06,4.61h-6.6c-1.4,0-2.12.72-2.15,2.15v4.45l.05,2.1c-.03,1.43.67,2.13,2.1,2.1h3.95c.25-1.15.82-2.17,1.7-3.05.87-.87,1.89-1.42,3.05-1.65v-4c0-1.4-.7-2.1-2.1-2.1M24.71,4.66h-2.2c-1.4,0-2.1.7-2.1,2.1v3.95c1.17.2,2.19.74,3.05,1.6.93.93,1.48,1.98,1.65,3.15l4.05.05c1.4,0,2.1-.7,2.1-2.1l-.05-2.25v-4.4c.03-1.43-.67-2.13-2.1-2.1h-4.4Z" fill="#39aaf5"/><path d="M22.56,28.51c-.17,0-.34-.01-.5-.05-1.1-.11-1.63-.79-1.6-2.05l-.05-4c-.36.09-.75.14-1.15.15-.37,0-.74-.03-1.1-.1l.05,4c0,1.19-.52,1.88-1.55,2.05-.16.03-.34.05-.55.05h-1.3l1.85,1.85,1.15,1.15c1,1,2,1,3,0l1.25-1.3,1.8-1.75h-1.3M25.11,15.46c.07.36.11.73.1,1.1,0,.4-.03.78-.1,1.15h4.05c1.4,0,2.1.7,2.1,2.1v1.3l3.45-3.45c1-1,1-2,0-3l-3.5-3.5.05,2.25c0,1.4-.7,2.1-2.1,2.1l-4.05-.05M13.31,16.61c0-.4.04-.8.1-1.2h-3.95c-1.43.03-2.13-.67-2.1-2.1l-.05-2.1-3.5,3.45c-.9,1.03-.87,2.03.1,3l3.45,3.45v-1.3c0-1.4.7-2.1,2.1-2.1h3.95c-.06-.35-.09-.72-.1-1.1M22.51,4.66h2.2l-3.9-3.9c-1-1-2.02-1.02-3.05-.05l-3.85,3.9h2.15c1.4,0,2.1.7,2.1,2.1v4c.35-.06.72-.09,1.1-.1.4,0,.78.03,1.15.1v-3.95c0-1.4.7-2.1,2.1-2.1Z" fill="#308ecd"/><path d="M20.41,10.71c-.37-.07-.75-.1-1.15-.1-.38,0-.75.04-1.1.1-1.16.23-2.18.78-3.05,1.65-.88.88-1.45,1.9-1.7,3.05-.06.4-.09.8-.1,1.2,0,.38.04.75.1,1.1.23,1.16.78,2.18,1.65,3.05.51.51,1.04.91,1.6,1.2.5.24,1,.41,1.5.5.36.07.73.1,1.1.1.4,0,.79-.06,1.15-.15.59-.1,1.14-.28,1.65-.55.52-.29,1-.65,1.45-1.1.86-.86,1.4-1.88,1.6-3.05.07-.37.1-.75.1-1.15,0-.37-.03-.74-.1-1.1-.17-1.17-.72-2.22-1.65-3.15-.86-.86-1.88-1.4-3.05-1.6Z" fill="#fff"/><path d="M10.36,44.06s-.07-.02-.1-.05c-2.97-.6-6.03-.22-9.2,1.15-.33.13-.6.35-.8.65-.2.3-.28.62-.25.95.03.27.13.52.3.75.03.03.07.08.1.15l10.65,12.75h9.15v-8.6c.9-.9,1.78-1.72,2.65-2.45,2.33-1.87,4.73-3.07,7.2-3.6,3-.63,6.1-.25,9.3,1.15.3.1.53.3.7.6.17-.23.27-.48.3-.75,0-.33-.1-.65-.3-.95-.17-.3-.4-.52-.7-.65-3.17-1.37-6.25-1.73-9.25-1.1h-.05c-2.53.53-5,1.78-7.4,3.75-.83.67-1.65,1.43-2.45,2.3-1.1-1.17-2.2-2.17-3.3-3-2.13-1.6-4.32-2.62-6.55-3.05Z" fill="#80be1f"/></g></g></g></svg>