<?xml version="1.0" encoding="UTF-8"?><svg id="Calque_2" xmlns="http://www.w3.org/2000/svg" viewBox="0 0 27.47 53.8"><g id="Calque_1-2"><g id="foliagePack_004"><g id="Layer0_73_FILL"><path d="M17.73,41.95l.55,4.65,5.55-1.75c.4-.13.8-.13,1.2,0,.37.13.68.37.95.7.13.13.22.27.25.4.1-.23.15-.48.15-.75,0-.43-.13-.8-.4-1.1-.27-.33-.58-.57-.95-.7-.4-.13-.8-.13-1.2,0l-5.55,1.75-.35-3.15c-.07-.03-.13-.05-.2-.05M8.88,38.4l-.1-.05-6.3-1.8c-.5-.17-.97-.12-1.4.15-.5.23-.83.62-1,1.15-.13.4-.1.83.1,1.3,0,.03.02.08.05.15l7.05,14.5h4.8l.55-12.8c.03-.47-.08-.87-.35-1.2-.3-.4-.67-.65-1.1-.75l-2.3-.65Z" fill="#80be1f"/><path d="M3.43,25.55c-.37.37-.58.8-.65,1.3,0,.17.02.32.05.45.37,1.4,1.18,2.75,2.45,4.05.03.03.07.07.1.1.57.53,1.32.73,2.25.6.53-.07,1.02-.22,1.45-.45.37-.17.73-.43,1.1-.8.63-.67,1.03-1.42,1.2-2.25-.1-.4-.3-.77-.6-1.1-.07,0-.1-.03-.1-.1-.43-.4-.88-.77-1.35-1.1-.83-.6-1.73-1.03-2.7-1.3-1.4-.37-2.47-.17-3.2.6M17.48,17.05c1.37-1.07,2.12-2.33,2.25-3.8-.13-3.1-.88-5.78-2.25-8.05-1.47-2.5-3.23-3.75-5.3-3.75-2.07,0-3.87,1.25-5.4,3.75-1.33,2.27-2.05,4.95-2.15,8.05.1,1.47.82,2.73,2.15,3.8.87.67,1.82,1.13,2.85,1.4.8.23,1.65.35,2.55.35,1.07,0,2.05-.13,2.95-.4.87-.3,1.65-.75,2.35-1.35M27.18,32.85c.13-.47.22-.92.25-1.35-.13-1.03-.55-1.88-1.25-2.55-1.23-1.23-3.02-1.58-5.35-1.05-1.53.43-3.02,1.18-4.45,2.25-.8.53-1.55,1.15-2.25,1.85-.03.07-.08.12-.15.15-.63.63-1.02,1.38-1.15,2.25.2,1.6.93,3.02,2.2,4.25.83.87,1.73,1.47,2.7,1.8.47.17.95.28,1.45.35,1.57.2,2.83-.18,3.8-1.15.03,0,.08-.03.15-.1,2.1-2.1,3.45-4.33,4.05-6.7Z" fill="#9b59b6"/><path d="M3.43,24.1c-.63.63-.85,1.55-.65,2.75.07-.5.28-.93.65-1.3.73-.77,1.8-.97,3.2-.6.97.27,1.87.7,2.7,1.3.47.33.92.7,1.35,1.1,0,.07.03.1.1.1.3.33.5.7.6,1.1.03-.1.05-.2.05-.3.13-.9-.08-1.65-.65-2.25-.07,0-.1-.03-.1-.1-.43-.4-.85-.75-1.25-1.05-.03-.03-.07-.05-.1-.05-.83-.63-1.73-1.08-2.7-1.35-1.4-.33-2.47-.12-3.2.65M26.18,27.5c-1.23-1.27-3.02-1.62-5.35-1.05-1.53.43-3.02,1.18-4.45,2.25-.07.03-.13.07-.2.1-.7.5-1.38,1.08-2.05,1.75-.03.07-.08.12-.15.15-.93.93-1.32,2.17-1.15,3.7.13-.87.52-1.62,1.15-2.25.07-.03.12-.08.15-.15.7-.7,1.45-1.32,2.25-1.85,1.43-1.07,2.92-1.82,4.45-2.25,2.33-.53,4.12-.18,5.35,1.05.7.67,1.12,1.52,1.25,2.55.17-1.7-.25-3.03-1.25-4M19.73,13.25v-.55c0-3.5-.75-6.48-2.25-8.95-1.47-2.5-3.23-3.75-5.3-3.75s-3.87,1.25-5.4,3.75c-1.47,2.47-2.2,5.45-2.2,8.95v.25c0,.1.02.2.05.3.1-3.1.82-5.78,2.15-8.05,1.53-2.5,3.33-3.75,5.4-3.75,2.07,0,3.83,1.25,5.3,3.75,1.37,2.27,2.12,4.95,2.25,8.05Z" fill="#b165d0"/><path d="M12.18,18.8c-.9,0-1.75-.12-2.55-.35l-.3,6.35s.07.02.1.05c.4.3.82.65,1.25,1.05,0,.07.03.1.1.1.57.6.78,1.35.65,2.25,0,.1-.02.2-.05.3-.17.83-.57,1.58-1.2,2.25-.37.37-.73.63-1.1.8l-.3,6.75.1.05,2.3.65c.43.1.8.35,1.1.75.27.33.38.73.35,1.2l-.55,12.8h9.1l4.9-7.45c.07-.13.12-.27.15-.4-.03-.13-.12-.27-.25-.4-.27-.33-.58-.57-.95-.7-.4-.13-.8-.13-1.2,0l-5.55,1.75-.55-4.65c.07,0,.13.02.2.05l-.2-1.55c-.97-.33-1.87-.93-2.7-1.8-1.27-1.23-2-2.65-2.2-4.25-.17-1.53.22-2.77,1.15-3.7.07-.03.12-.08.15-.15.67-.67,1.35-1.25,2.05-1.75.07-.03.13-.07.2-.1l-1.25-10.3c-.9.27-1.88.4-2.95.4Z" fill="#76af1c"/></g></g></g></svg>