<?xml version="1.0" encoding="UTF-8"?><svg id="Calque_2" xmlns="http://www.w3.org/2000/svg" viewBox="0 0 40.36 35.05"><g id="Calque_1-2"><g id="foliagePack_003"><g id="Layer0_74_FILL"><path d="M40.06,22.15c-.17-.3-.4-.5-.7-.6-3.2-1.4-6.3-1.78-9.3-1.15-3.4.73-6.68,2.75-9.85,6.05v8.6h9.15l10.6-12.75c.03-.07.07-.12.1-.15Z" fill="#76af1c"/><path d="M10.36,18.7s-.07-.02-.1-.05c-2.97-.6-6.03-.22-9.2,1.15-.33.13-.6.35-.8.65-.2.3-.28.62-.25.95.03.27.13.52.3.75.03.03.07.08.1.15l10.65,12.75h9.15v-8.6c3.17-3.3,6.45-5.32,9.85-6.05,3-.63,6.1-.25,9.3,1.15.3.1.53.3.7.6.17-.23.27-.48.3-.75,0-.33-.1-.65-.3-.95-.17-.3-.4-.52-.7-.65-3.17-1.37-6.25-1.73-9.25-1.1h-.05c-3.4.7-6.68,2.72-9.85,6.05-3.17-3.37-6.45-5.38-9.85-6.05Z" fill="#80be1f"/><path d="M27.21,6.95c-1.93-3.47-4.27-5.2-7-5.2s-5.08,1.73-7.05,5.2c-1.7,3.17-2.65,6.9-2.85,11.2v.05c.03.17.05.33.05.5,3.4.67,6.68,2.68,9.85,6.05,3.17-3.33,6.45-5.35,9.85-6.05.03-.27.05-.55.05-.85-.23-4.17-1.2-7.8-2.9-10.9Z" fill="#3498db"/><path d="M20.21,1.75c2.73,0,5.07,1.73,7,5.2,1.7,3.1,2.67,6.73,2.9,10.9v-1.4c-.2-4.3-1.17-8.03-2.9-11.2-1.93-3.5-4.27-5.25-7-5.25s-5.08,1.75-7.05,5.25c-1.7,3.17-2.65,6.9-2.85,11.2-.03.27-.05.53-.05.8,0,.32.02.62.05.9.2-4.3,1.15-8.03,2.85-11.2,1.97-3.47,4.32-5.2,7.05-5.2Z" fill="#39aaf5"/></g></g></g></svg>