<?xml version="1.0" encoding="UTF-8"?><svg id="Calque_2" xmlns="http://www.w3.org/2000/svg" viewBox="0 0 40.36 50"><g id="Calque_1-2"><g id="foliagePack_001"><g id="Layer0_76_FILL"><path d="M16.91,36.7c1.1.83,2.2,1.83,3.3,3,.8-.87,1.62-1.63,2.45-2.3-.29-2.07-.47-4.17-.55-6.3l-.5.5c-1,.97-2,.97-3,0l-1.95-1.95c0,2.39.08,4.74.25,7.05M39.96,37.25c.03-.07.07-.12.1-.15-.17-.3-.4-.5-.7-.6-3.2-1.4-6.3-1.78-9.3-1.15-2.47.53-4.87,1.73-7.2,3.6-.87.73-1.75,1.55-2.65,2.45v8.6h9.15l10.6-12.75Z" fill="#76af1c"/><path d="M10.36,33.65s-.07-.02-.1-.05c-2.97-.6-6.03-.22-9.2,1.15-.33.13-.6.35-.8.65-.2.3-.28.62-.25.95.03.27.13.52.3.75.03.03.07.08.1.15l10.65,12.75h9.15v-8.6c.9-.9,1.78-1.72,2.65-2.45,2.33-1.87,4.73-3.07,7.2-3.6,3-.63,6.1-.25,9.3,1.15.3.1.53.3.7.6.17-.23.27-.48.3-.75,0-.33-.1-.65-.3-.95-.17-.3-.4-.52-.7-.65-3.17-1.37-6.25-1.73-9.25-1.1h-.05c-2.53.53-5,1.78-7.4,3.75-.83.67-1.65,1.43-2.45,2.3-1.1-1.17-2.2-2.17-3.3-3-2.13-1.6-4.32-2.62-6.55-3.05Z" fill="#80be1f"/><path d="M30.86,22.3c-1,1-2,1-3,0l-2.8-2.8c-.22.31-.47.61-.75.9-.27.26-.55.49-.85.7l2.85,2.8c1,1,1,2,0,3l-.9.85,4.25.05c1.4,0,2.1-.72,2.1-2.15v-4.25l-.9.9M16.76,21.1c-.31-.2-.61-.43-.9-.7-.27-.29-.52-.59-.75-.9l-2.8,2.8c-1,1-1.98,1-2.95,0l-1.55-1.5v4.9c.07,1.4.78,2.1,2.15,2.1h4.9l-.9-.9c-1-1-1-2,0-3l2.8-2.8M13.96,5.45l1.55-1.55-5.55-.05c-1.4.03-2.12.75-2.15,2.15l.05,5.5,1.5-1.5c.97-1,1.95-1,2.95,0l2.85,2.8c.2-.29.43-.58.7-.85.28-.28.58-.53.9-.75l-2.8-2.8c-1-1-1-1.98,0-2.95M29.66,3.9h-4.9l1.55,1.55c1,.97,1,1.95,0,2.95l-2.85,2.85c.3.2.58.43.85.7.28.28.51.56.7.85l2.85-2.8c1-1,2-1,3,0l.9.9v-4.9c0-1.4-.7-2.1-2.1-2.1Z" fill="#aa372b"/><path d="M20.06,22.1c-1.22,0-2.32-.33-3.3-1l-2.8,2.8c-1,1-1,2,0,3l.9.9,1.8,1.85,1.95,1.95c1,.97,2,.97,3,0l.5-.5,3.3-3.35.9-.85c1-1,1-2,0-3l-2.85-2.8c-.98.67-2.11,1-3.4,1M14.16,16.15c0-1.25.33-2.37,1-3.35l-2.85-2.8c-1-1-1.98-1-2.95,0l-1.5,1.5-3.2,3.15c-.97,1-.97,2,0,3l3.15,3.15,1.55,1.5c.97,1,1.95,1,2.95,0l2.8-2.8c-.63-.99-.95-2.11-.95-3.35M25.01,12.8c.7.99,1.05,2.1,1.05,3.35,0,1.24-.33,2.36-1,3.35l2.8,2.8c1,1,2,1,3,0l.9-.9,3.75-3.75c1-1,1-2,0-3l-3.75-3.75-.9-.9c-1-1-2-1-3,0l-2.85,2.8M26.31,5.45l-1.55-1.55-3.15-3.15c-1-1-2-1-3,0l-3.1,3.15-1.55,1.55c-1,.97-1,1.95,0,2.95l2.8,2.8c.98-.67,2.08-1,3.3-1,1.29,0,2.42.35,3.4,1.05l2.85-2.85c1-1,1-1.98,0-2.95Z" fill="#e0493a"/><path d="M26.06,16.15c0-1.25-.35-2.36-1.05-3.35-.19-.29-.42-.57-.7-.85-.27-.27-.55-.5-.85-.7-.98-.7-2.11-1.05-3.4-1.05s-2.32.33-3.3,1c-.32.22-.62.47-.9.75-.27.27-.5.56-.7.85-.67.98-1,2.1-1,3.35s.32,2.36.95,3.35c.23.31.48.61.75.9.29.27.59.5.9.7.98.67,2.08,1,3.3,1,1.29,0,2.42-.33,3.4-1,.3-.21.58-.44.85-.7.28-.29.53-.59.75-.9.67-.99,1-2.11,1-3.35Z" fill="#fc0"/></g></g></g></svg>