<?xml version="1.0" encoding="UTF-8"?><svg id="Calque_2" xmlns="http://www.w3.org/2000/svg" viewBox="0 0 64 64"><g id="Calque_1-2"><g id="grass_top"><path d="M64,12.3l-.55-.6-3,9.35,3.55-.75v12.65l-6.25,1.25,6.25,7.05v8.4l-2.9,2.4,2.9,1.1v10.85h-24.15l1.05-3.2-9.65,1.95,1.1,1.25H0v-10.85l6.25,2.4-1.6-9.75-4.65,3.85v-8.45l.3.35,3.15-9.3-3.45.7v-12.65l6-1.3L0,12.35V0h32.35l5.4,6.1,2.1-6.1h24.15v12.3M55.15,11.85l-2.45-9.5-7,6.9,9.45,2.6M57.75,3.1l1.25,6,4.55-4.05-5.8-1.95M40.7,32.6l.4-6.1-5.5,2.75,5.1,3.35M47.1,17.05l5.05,3.3.4-6.1-5.45,2.8M50.9,35.95l3.15-9.3-9.65,1.95,6.5,7.35M43.5,57.05l.35-6.1-5.5,2.75,5.15,3.35M52.25,51.15l-4.3,8.85,9.8-.7-5.5-8.15M55.75,47.25l.4-6.1-5.5,2.7,5.1,3.4M19.9,8.5l4.55-4.05-5.8-1.95,1.25,6M9.25,10.2L14.15,1.7H4.35l4.9,8.5M28.25,24.25l-4.6,8.7,9.85-.35-5.25-8.35M17.05,28.85l-8.3-5.25-.35,9.85,8.65-4.6M7.75,15.2l3.55,4.95,2.6-5.55-6.15.6M27,20.3l6.1.35-2.75-5.45-3.35,5.1M24.65,11.7l-9.65,1.95,6.5,7.35,3.15-9.3M22.8,63.45l3.1-9.3-9.65,1.95,6.55,7.35M33.55,12.9l4.9,8.5,4.9-8.5h-9.8M27.95,53.5l6.1.35-2.7-5.45-3.4,5.1M29.3,40.35l6.05.3-2.75-5.45-3.3,5.15M14.45,57.55l-5.8-1.95,1.25,6,4.55-4.05M7.65,39.95l4.05,4.55,1.95-5.8-6,1.25M38.15,38.55l-.3,9.85,8.65-4.6-8.35-5.25M16.9,47.65l8.1-5.55-8.85-4.25.75,9.8" fill="#2ecc71"/><path d="M64,20.3l-3.55.75,3-9.35.55.6v8M0,12.35l6,6.65-6,1.3v-7.95M40.7,32.6l-5.1-3.35,5.5-2.75-.4,6.1M33.55,12.9h9.8l-4.9,8.5-4.9-8.5M22.8,63.45l-6.55-7.35,9.65-1.95-3.1,9.3M14.45,57.55l-4.55,4.05-1.25-6,5.8,1.95" fill="#2abb67"/><path d="M39.85,0l-2.1,6.1-5.4-6.1h7.5M0,32.95l3.45-.7L.3,41.55l-.3-.35v-8.25M32.35,64l-1.1-1.25,9.65-1.95-1.05,3.2h-7.5M64,41.25l-6.25-7.05,6.25-1.25v8.3M57.75,3.1l5.8,1.95-4.55,4.05-1.25-6M55.15,11.85l-9.45-2.6,7-6.9,2.45,9.5M50.9,35.95l-6.5-7.35,9.65-1.95-3.15,9.3M47.1,17.05l5.45-2.8-.4,6.1-5.05-3.3M52.25,51.15l5.5,8.15-9.8.7,4.3-8.85M43.5,57.05l-5.15-3.35,5.5-2.75-.35,6.1M19.9,8.5l-1.25-6,5.8,1.95-4.55,4.05M7.75,15.2l6.15-.6-2.6,5.55-3.55-4.95M17.05,28.85l-8.65,4.6.35-9.85,8.3,5.25M28.25,24.25l5.25,8.35-9.85.35,4.6-8.7M24.65,11.7l-3.15,9.3-6.5-7.35,9.65-1.95M27.95,53.5l3.4-5.1,2.7,5.45-6.1-.35M7.65,39.95l6-1.25-1.95,5.8-4.05-4.55M16.9,47.65l-.75-9.8,8.85,4.25-8.1,5.55M38.15,38.55l8.35,5.25-8.65,4.6.3-9.85" fill="#2cc46c"/><path d="M0,49.65l4.65-3.85,1.6,9.75-6.25-2.4v-3.5M64,53.15l-2.9-1.1,2.9-2.4v3.5M55.75,47.25l-5.1-3.4,5.5-2.7-.4,6.1M9.25,10.2L4.35,1.7h9.8l-4.9,8.5M27,20.3l3.35-5.1,2.75,5.45-6.1-.35M29.3,40.35l3.3-5.15,2.75,5.45-6.05-.3" fill="#30d475"/></g></g></svg>