<?xml version="1.0" encoding="UTF-8"?><svg id="Calque_2" xmlns="http://www.w3.org/2000/svg" viewBox="0 0 64 64"><g id="Calque_1-2"><g id="leaves"><path d="M64,20.3l-3.55.75,3-9.35.55.6v8M0,12.35l6,6.65-6,1.3v-7.95M45.7,9.25l7-6.9,2.45,9.5-9.45-2.6M54.05,26.65l-3.15,9.3-6.5-7.35,9.65-1.95M43.35,12.9l-4.9,8.5-4.9-8.5h9.8M4.35,1.7h9.8l-4.9,8.5L4.35,1.7M29.3,40.35l3.3-5.15,2.75,5.45-6.05-.3M22.8,63.45l-6.55-7.35,9.65-1.95-3.1,9.3" fill="#229a55"/><path d="M22.8,63.45l3.1-9.3-9.65,1.95,6.55,7.35M64,12.3l-.55-.6-3,9.35,3.55-.75v12.65l-6.25,1.25,6.25,7.05v8.4l-2.9,2.4,2.9,1.1v10.85h-24.15l1.05-3.2-9.65,1.95,1.1,1.25H0v-10.85l6.25,2.4-1.6-9.75-4.65,3.85v-8.45l.3.35,3.15-9.3-3.45.7v-12.65l6-1.3L0,12.35V0h32.35l5.4,6.1,2.1-6.1h24.15v12.3M45.7,9.25l9.45,2.6-2.45-9.5-7,6.9M33.1,20.65l-2.75-5.45-3.35,5.1,6.1.35M23.65,32.95l9.85-.35-5.25-8.35-4.6,8.7M19.9,8.5l4.55-4.05-5.8-1.95,1.25,6M57.75,3.1l1.25,6,4.55-4.05-5.8-1.95M54.05,26.65l-9.65,1.95,6.5,7.35,3.15-9.3M40.7,32.6l.4-6.1-5.5,2.75,5.1,3.35M47.1,17.05l5.05,3.3.4-6.1-5.45,2.8M43.35,12.9h-9.8l4.9,8.5,4.9-8.5M21.5,21l3.15-9.3-9.65,1.95,6.5,7.35M4.35,1.7l4.9,8.5L14.15,1.7H4.35M7.75,15.2l3.55,4.95,2.6-5.55-6.15.6M8.4,33.45l8.65-4.6-8.3-5.25-.35,9.85M9.9,61.6l4.55-4.05-5.8-1.95,1.25,6M31.35,48.4l-3.4,5.1,6.1.35-2.7-5.45M47.95,60l9.8-.7-5.5-8.15-4.3,8.85M55.75,47.25l.4-6.1-5.5,2.7,5.1,3.4M43.5,57.05l.35-6.1-5.5,2.75,5.15,3.35M7.65,39.95l4.05,4.55,1.95-5.8-6,1.25M29.3,40.35l6.05.3-2.75-5.45-3.3,5.15M37.85,48.4l8.65-4.6-8.35-5.25-.3,9.85M25,42.1l-8.85-4.25.75,9.8,8.1-5.55" fill="#27ae60"/><path d="M25,42.1l-8.1,5.55-.75-9.8,8.85,4.25M0,49.65l4.65-3.85,1.6,9.75-6.25-2.4v-3.5M64,53.15l-2.9-1.1,2.9-2.4v3.5M47.1,17.05l5.45-2.8-.4,6.1-5.05-3.3M40.7,32.6l-5.1-3.35,5.5-2.75-.4,6.1M21.5,21l-6.5-7.35,9.65-1.95-3.15,9.3M9.9,61.6l-1.25-6,5.8,1.95-4.55,4.05" fill="#29bb67"/><path d="M39.85,0l-2.1,6.1-5.4-6.1h7.5M0,32.95l3.45-.7L.3,41.55l-.3-.35v-8.25M32.35,64l-1.1-1.25,9.65-1.95-1.05,3.2h-7.5M64,41.25l-6.25-7.05,6.25-1.25v8.3M57.75,3.1l5.8,1.95-4.55,4.05-1.25-6M19.9,8.5l-1.25-6,5.8,1.95-4.55,4.05M23.65,32.95l4.6-8.7,5.25,8.35-9.85.35M33.1,20.65l-6.1-.35,3.35-5.1,2.75,5.45M8.4,33.45l.35-9.85,8.3,5.25-8.65,4.6M7.75,15.2l6.15-.6-2.6,5.55-3.55-4.95M7.65,39.95l6-1.25-1.95,5.8-4.05-4.55M43.5,57.05l-5.15-3.35,5.5-2.75-.35,6.1M55.75,47.25l-5.1-3.4,5.5-2.7-.4,6.1M47.95,60l4.3-8.85,5.5,8.15-9.8.7M31.35,48.4l2.7,5.45-6.1-.35,3.4-5.1M37.85,48.4l.3-9.85,8.35,5.25-8.65,4.6" fill="#24a159"/></g></g></svg>