<?xml version="1.0" encoding="UTF-8"?><svg id="Calque_2" xmlns="http://www.w3.org/2000/svg" viewBox="0 0 64 64"><g id="Calque_1-2"><g id="leaves_transparent"><path d="M55.15,11.85l-2.45-9.5-7,6.9,9.45,2.6M57.75,3.1l1.25,6,4.55-4.05-5.8-1.95M38.25,4.65l9.45,1.1.65-5.75h15.65v9.25l-7.5,1.8,1.75,7.55,3.25-.7-1.05,3.15,3.55-.75v12.65l-6.25,1.25,3.3,3.7.25,2.3,1.6-.15,1.1,1.2v8.4l-2.9,2.4,2.9,1.1v10.85h-15.6l.4-3.8-9.55-1.1-.2,2.1-7.8,1.55,1.1,1.25H0v-10.85l6.25,2.4-1.6-9.75-4.65,3.85v-8.45l.3.35.6-1.75,1.8-.25-.45-3.75,1.2-3.55-3.45.7v-12.65l6-1.3L1.1,13.55.05,9.25h-.05V0h32.35l5.4,6.1.5-1.45M42.05,15.2l1.2.85,3.15-4.4-4.4-3.2-3.2,4.45h-5.25l4.9,8.5,3.6-6.2M31,20.55l-.35,3.5,5.4.55.55-5.4-4.45-.45-1.8-3.55-3.35,5.1,4,.25M33.35,36.7l1.95-.6-2.35-7.45-1.6.5-3.1-4.9-4.6,8.7,2.45-.05,1.8,5.55,3.3-1.05-1.9,2.95,6.05.3-2-3.95M44.65,29.65l-4.2,3.45,3.45,4.2,4.25-3.45-3.5-4.2M40.7,32.6l.4-6.1-5.5,2.75,5.1,3.35M50.85,27.3l3.3-3.5-3.95-3.75-3.75,3.95,3.65,3.45-5.7,1.15,6.5,7.35,3.15-9.3-3.2.65M47.1,17.05l5.05,3.3.4-6.1-5.45,2.8M53.2,30.2l-1.95,5.1,5.15,2,1.9-5.15-5.1-1.95M7.8,7.7l1.45,2.5L14.15,1.7H4.35l.75,1.3-2.1.9,2.25,4.95,2.55-1.15M23.8,11.9l2.4-2.65-3.5-3.2,1.75-1.6-5.8-1.95.2.9-5.9,6.4,3.8,3.5-1.75.35,6.5,7.35,3.15-9.3-.85.2M11.65,19.45l2.25-4.85-6.15.6,3.05,4.25-1.2,4.7-.85-.55-.15,4.35-.3,1.15.25.1-.15,4.25,5.45-2.85,4.3,1.1,2.55-9.9-9.05-2.35M12.4,42.4l2.9-4.05-4.35-3.15-3.2,4.35.4.3-.5.1,4.05,4.55.7-2.1M16.9,47.65l8.1-5.55-8.85-4.25.75,9.8M8.6,46.95l1.55,4.6,4.6-1.55-1.55-4.65-4.6,1.6M14.45,57.55l-5.8-1.95,1.25,6,4.55-4.05M8,61.45l-.85-5.35-5.35.85.85,5.35,5.35-.85M18.1,55.75l-1.85.35,6.55,7.35,2.1-6.2,2.3.5,1-4.25,5.85.35-2.7-5.45-3.05,4.65,1.1-5.05-9.75-2.2-2.15,9.8.6.15M50.75,43.8l-.6-1.9-4.4,1.4-7.6-4.75-.25,9.35-.85-1.8-4.9,2.25,2.2,4.95,4.95-2.2-1.25-2.8,5.15-2.7,1.9,6.05,7.4-2.35-1.7-5.35,4.95,3.3.4-6.1-5.4,2.65M54.75,54.8l-2.5-3.65-4.3,8.85,9.8-.7-2.9-4.3,5.25.5.6-5.45-5.45-.55-.5,5.3M38.35,53.7l5.15,3.35.35-6.1-5.5,2.75" fill="#27ae60"/><path d="M55.15,11.85l-9.45-2.6,7-6.9,2.45,9.5M61.5,17.9l2.5-.6v3l-3.55.75,1.05-3.15M0,20.3v-3l1.85-.45-.75-3.3,4.9,5.45-6,1.3M42.05,15.2l-3.6,6.2-4.9-8.5h5.25l3.25,2.3M33.35,36.7l2,3.95-6.05-.3,1.9-2.95,2.15-.7M50.85,27.3l3.2-.65-3.15,9.3-6.5-7.35,5.7-1.15.3.3.45-.45M5.1,3l-.75-1.3h9.8l-4.9,8.5-1.45-2.5,2.4-1.1-2.2-4.9-2.9,1.3M24.9,57.25l-2.1,6.2-6.55-7.35,1.85-.35,6.8,1.5" fill="#229a55"/><path d="M57.75,3.1l5.8,1.95-4.55,4.05-1.25-6M64,32.95v1.45l-3.35.4.4,3.1-3.3-3.7,6.25-1.25M62.9,40.05l1.1-.15v1.35l-1.1-1.2M39.05,61.2l-.35,2.8h-6.35l-1.1-1.25,7.8-1.55M0,41.2v-1.3l.9-.1-.6,1.75-.3-.35M2.25,35.8l-.2-1.65-2.05.25v-1.45l3.45-.7-1.2,3.55M32.35,0h6.35l-.55,4.65h.1l-.5,1.45-5.4-6.1M31,20.55l-4-.25,3.35-5.1,1.8,3.55-.95-.1-.2,1.9M26.1,32.9l-2.45.05,4.6-8.7,3.1,4.9-5.85,1.85.6,1.9M18.85,3.4l-.2-.9,5.8,1.95-1.75,1.6-3.4-3.15-.45.5M11.65,19.45l-.8-.2-.05.2-3.05-4.25,6.15-.6-2.25,4.85M9.6,24.15l-1,3.8.15-4.35.85.55M8.55,29.2l5.3,1.4-5.45,2.85.15-4.25M12.4,42.4l-.7,2.1-4.05-4.55.5-.1,4,2.9.25-.35M28.3,53.05l3.05-4.65,2.7,5.45-5.85-.35.1-.45M50.75,43.8l5.4-2.65-.4,6.1-4.95-3.3-.05-.15M43.2,45.6l-5.15,2.7-.15-.4.25-9.35,7.6,4.75-3,.95.45,1.35M54.75,54.8l-.05.15.15.05,2.9,4.3-9.8.7,4.3-8.85,2.5,3.65M38.35,53.7l5.5-2.75-.35,6.1-5.15-3.35" fill="#24a159"/><path d="M64,49.65v3.5l-2.9-1.1,2.9-2.4M0,53.15v-3.5l4.65-3.85,1.6,9.75-6.25-2.4M40.7,32.6l-5.1-3.35,5.5-2.75-.4,6.1M47.1,17.05l5.45-2.8-.4,6.1-5.05-3.3M23.8,11.9l.85-.2-3.15,9.3-6.5-7.35,1.75-.35,3.1,2.85,3.95-4.25M16.9,47.65l-.75-9.8,8.85,4.25-8.1,5.55M14.45,57.55l-4.55,4.05-1.25-6,5.8,1.95" fill="#29bb67"/></g></g></svg>