<?xml version="1.0" encoding="UTF-8"?><svg id="Calque_2" xmlns="http://www.w3.org/2000/svg" viewBox="0 0 40 52.99"><g id="Calque_1-2"><g id="present_small_red"><path d="M40,18.84c-.1-2.57-1.45-3.85-4.05-3.85h-11.95v-2h11.95c2.7,0,4.05,1.37,4.05,4.1v1.75M16,14.99H4.1c-2.63,0-4,1.28-4.1,3.85v-1.75c0-2.73,1.37-4.1,4.1-4.1h11.9v2" fill="#e05937"/><path d="M16,14.99v14H0v-10.15c.1-2.57,1.47-3.85,4.1-3.85h11.9M24,14.99h11.95c2.6,0,3.95,1.28,4.05,3.85v10.15h-16v-14M0,36.99h16v16H4.1c-2.73,0-4.1-1.35-4.1-4.05v-11.95M24,36.99h16v11.95c0,2.7-1.35,4.05-4.05,4.05h-11.95v-16" fill="#bd3d1d"/><path d="M24,12.99v2h-8v-2h8" fill="#f7d288"/><path d="M24,14.99v14h16v8H0v-8h16v-14h8M16,38.99h8v14h-8v-14" fill="#f0c570"/><path d="M16,38.99v-2h8v2h-8" fill="#dbaf58"/><path d="M4.1,8.09c-.4-1.9.37-3.82,2.3-5.75C10.93-2.03,15.45-.28,19.95,7.59l.2.35.15-.3C24.8-.26,29.32-2.01,33.85,2.39c1.93,1.93,2.7,3.85,2.3,5.75-.27-1.27-1.03-2.53-2.3-3.8C29.42.04,25.02,1.6,20.65,9.04v.05l-.5.9v-.05l-.2-.35-.3-.5C15.25,1.62,10.83.04,6.4,4.34c-1.27,1.27-2.03,2.52-2.3,3.75" fill="#f7d288"/><path d="M4.1,8.09c.27-1.23,1.03-2.48,2.3-3.75C10.83.04,15.25,1.62,19.65,9.09l.3.5.2.35v.05l.5-.9v-.05C25.02,1.6,29.42.04,33.85,4.34c1.27,1.27,2.03,2.53,2.3,3.8-.53,2.5-3.08,5.02-7.65,7.55-1.7.93-3.35,1.37-4.95,1.3-.47-.03-.98-.2-1.55-.5l-1.35-1.05-.5-.55-.55.55-1.35,1c-.57.3-1.08.48-1.55.55-1.6.07-3.25-.37-4.95-1.3-4.57-2.53-7.12-5.07-7.65-7.6M20.85,13.99l.05.6.3.5.45.25.65.05c.73-.2,1.57-.62,2.5-1.25,4.37-3.2,5.85-5.52,4.45-6.95-1.5-1.4-3.87.03-7.1,4.3-.67.93-1.1,1.77-1.3,2.5M18.6,15.34l.45-.25.3-.5.05-.65c-.2-.7-.63-1.52-1.3-2.45-3.23-4.3-5.6-5.73-7.1-4.3-1.4,1.43.08,3.73,4.45,6.9.93.67,1.77,1.1,2.5,1.3l.65-.05" fill="#f0c570"/><path d="M18.6,15.34l-.65.05c-.73-.2-1.57-.63-2.5-1.3-4.37-3.17-5.85-5.47-4.45-6.9,1.5-1.43,3.87,0,7.1,4.3.67.93,1.1,1.75,1.3,2.45l-.05.65-.3.5-.45.25M20.85,13.99c.2-.73.63-1.57,1.3-2.5,3.23-4.27,5.6-5.7,7.1-4.3,1.4,1.43-.08,3.75-4.45,6.95-.93.63-1.77,1.05-2.5,1.25l-.65-.05-.45-.25-.3-.5-.05-.6" fill="#dbaf58"/></g></g></svg>