<?xml version="1.0" encoding="UTF-8"?><svg id="Calque_2" xmlns="http://www.w3.org/2000/svg" viewBox="0 0 124 58"><g id="Calque_1-2"><g id="spaceStation_029"><g id="Layer0_161_FILL"><path d="M123.45,32.6c-.4-.4-.88-.6-1.45-.6h-10.45v2h10.45v8l-32,8-8,8h2.85l6.2-6.2,31.45-7.85c.43-.13.8-.37,1.1-.7.27-.37.4-.78.4-1.25v-8c0-.57-.18-1.03-.55-1.4M2,34h10.5v-2H2c-.57,0-1.03.2-1.4.6-.4.37-.6.83-.6,1.4v8c0,.47.15.88.45,1.25.27.33.63.57,1.1.7l31.4,7.85,6.2,6.2h2.85l-8-8L2,42v-8Z" fill="#78888c"/><path d="M42,46v4h-8l8,8h40l8-8h-8v-4h-4v4h-32v-4h-4M2,38v4h120v-4H2Z" fill="#a1b6bb"/><path d="M2,42l32,8h8v-4h4v4h32v-4h4v4h8l32-8H2Z" fill="#93a6aa"/><path d="M24.45,18c-4.7,4.87-8.25,10.2-10.65,16h96.4c-2.43-5.8-5.98-11.13-10.65-16-24.73,4.67-49.77,4.67-75.1,0Z" fill="#f5f5f5"/><path d="M12.5,34H2v4h120v-4H12.5Z" fill="#afc6cb"/><path d="M62,2c-5.2,0-10.13.67-14.8,2-8.2,2.33-15.53,6.73-22,13.2-.27.27-.52.53-.75.8,25.33,4.67,50.37,4.67,75.1,0-.27-.27-.53-.53-.8-.8-6.47-6.47-13.78-10.87-21.95-13.2-4.67-1.33-9.6-2-14.8-2Z" fill="#fff"/><path d="M62,0c-7.5,0-14.45,1.33-20.85,4-6.33,2.63-12.12,6.57-17.35,11.8-.73.7-1.45,1.43-2.15,2.2-3.9,4.3-6.95,8.97-9.15,14v2h1.3c2.4-5.8,5.95-11.13,10.65-16,.23-.27.48-.53.75-.8,6.47-6.47,13.8-10.87,22-13.2,4.67-1.33,9.6-2,14.8-2s10.13.67,14.8,2c8.17,2.33,15.48,6.73,21.95,13.2.27.27.53.53.8.8,4.67,4.87,8.22,10.2,10.65,16h1.35v-2c-2.27-5.03-5.35-9.7-9.25-14-.7-.77-1.4-1.5-2.1-2.2-5.23-5.23-11-9.17-17.3-11.8-6.4-2.67-13.37-4-20.9-4Z" fill="#ccc"/></g></g></g></svg>