<?xml version="1.0" encoding="UTF-8"?><svg id="Calque_2" xmlns="http://www.w3.org/2000/svg" viewBox="0 0 68.48 50.61"><g id="Calque_1-2"><g id="spider_dead"><path d="M22.95,9.05l8.25,2.75-6.65,16.5-5.15-1.75,3.55-17.5" fill="#775e00"/><path d="M16.8,4L6.95,39.55l16.15-7.75c1.83-.77,3.52-.65,5.05.35,1.23.9,1.42,2.4.55,4.5l-.1.35c-.4,1.07-1.25,1.73-2.55,2l-21.55,7.85C1.44,47.02-.06,45.82,0,43.25L4.55,1.7l12.25,2.3" fill="#775e00"/><path d="M44.45,5l2.9,17.8-7.4,2.5-7.3-16.25,11.8-4.05" fill="#775e00"/><path d="M28.35,19.7l.8-.15c5.93-1.17,11.42-1.12,16.45.15,5.93,1.5,9.43,4.28,10.5,8.35,1.1,4.07-.53,8.25-4.9,12.55-1.67,1.57-3.52,3.02-5.55,4.35-2.63,1.63-5.62,2.98-8.95,4.05l-1.75.6-.3.1-.9.2-1,.3c-2.4.53-4.7.55-6.9.05-1.43-.4-2.82-.98-4.15-1.75-3.7-2.13-6.1-5.23-7.2-9.3-1.07-4.07-.53-7.93,1.6-11.6,1.97-3.5,4.87-5.83,8.7-7l1-.3.9-.2,1.65-.4" fill="#c9a000"/><path d="M26.7,30.2c.23.23.35.55.35.95.03.37-.08.68-.35.95l-1.85,1.85,1.8,1.8c.27.23.4.55.4.95,0,.37-.13.68-.4.95l-.05.05-.95.35c-.37,0-.68-.12-.95-.35l-1.8-1.8-1.8,1.85c-.27.23-.6.35-1,.35-.4,0-.72-.12-.95-.35l-.05-.05c-.27-.27-.38-.6-.35-1,0-.37.13-.67.4-.9l1.8-1.85-1.9-1.9c-.23-.27-.35-.58-.35-.95,0-.37.12-.68.35-.95l.05-.05c.27-.27.6-.38,1-.35.37-.03.67.08.9.35l1.9,1.9,1.85-1.85c.27-.27.58-.4.95-.4s.68.13.95.4l.05.05" fill="#917300"/><path d="M48.6,3.2l12-3.2,7.85,41.05c.27,2.53-1.15,3.83-4.25,3.9l-22.15-6.1c-1.3-.17-2.17-.78-2.6-1.85l-.15-.3c-1.03-2-.98-3.53.15-4.6,1.47-1.1,3.13-1.33,5-.7l16.75,6.45L48.6,3.2" fill="#775e00"/><path d="M14.4,18.6c.4.57.55,1.2.45,1.9-.8,5.4,1.13,8.33,5.8,8.8l-5.3,6.35c-4.63-3.9-6.45-9.2-5.45-15.9.13-.7.47-1.25,1-1.65s1.15-.55,1.85-.45c.7.07,1.25.38,1.65.95" fill="#c9a000"/><path d="M16,15.95c.33-.6.85-1,1.55-1.2l1.85.25c5.97,3.27,9.08,7.93,9.35,14l-8.25.3c2.47-4,1.3-7.3-3.5-9.9-.63-.33-1.03-.83-1.2-1.5-.2-.67-.13-1.32.2-1.95" fill="#c9a000"/></g></g></svg>