<?xml version="1.0" encoding="UTF-8"?><svg id="Calque_2" xmlns="http://www.w3.org/2000/svg" viewBox="0 0 70.3 44.61"><g id="Calque_1-2"><g id="spider"><path d="M28.95,26.86l1.1,17.75h-8.7l2.15-17.75h5.45" fill="#775e00"/><path d="M3.05,2.91C3.45.41,5.15-.47,8.15.26l19.8,11.6c1.2.5,1.9,1.32,2.1,2.45l.05.35c.47,2.2.02,3.65-1.35,4.35-1.7.7-3.38.5-5.05-.6L9.2,7.86l3.25,36.75H0L3.05,2.91" fill="#775e00"/><path d="M42.45,26.86h7.8l3.05,17.75h-12.45l1.6-17.75" fill="#775e00"/><path d="M52.4,10.01c4.37,4.3,6,8.48,4.9,12.55-1.07,4.07-4.57,6.85-10.5,8.35-5.03,1.27-10.52,1.32-16.45.15l-.8-.15-1.65-.4-.9-.2-1-.3c-3.83-1.17-6.73-3.5-8.7-7-2.13-3.67-2.67-7.53-1.6-11.6,1.1-4.07,3.5-7.17,7.2-9.3,1.33-.77,2.72-1.35,4.15-1.75,2.2-.5,4.5-.48,6.9.05l1,.3.9.2.3.1,1.75.6c3.33,1.07,6.32,2.42,8.95,4.05,2.03,1.33,3.88,2.78,5.55,4.35" fill="#c9a000"/><path d="M27.1,14.96c.5.9.63,1.83.4,2.8-.27.93-.85,1.67-1.75,2.2-.87.5-1.78.62-2.75.35s-1.7-.82-2.2-1.65c-.5-.93-.62-1.87-.35-2.8.23-.97.8-1.7,1.7-2.2.83-.5,1.73-.62,2.7-.35s1.72.82,2.25,1.65" fill="#917300"/><path d="M40.25,14.31c.2-1.13.9-1.95,2.1-2.45L62.15.26c3-.73,4.7.15,5.1,2.65l3.05,41.7h-12.45l3.25-36.75-14.5,10.55c-1.67,1.1-3.35,1.3-5.05.6-1.37-.7-1.82-2.15-1.35-4.35l.05-.35" fill="#775e00"/><path d="M11.85,35.06c-.7,0-1.3-.23-1.8-.7-.47-.47-.72-1.05-.75-1.75-.17-6.77,2.3-11.8,7.4-15.1l4.45,7c-4.67-.13-6.95,2.53-6.85,8,0,.7-.23,1.3-.7,1.8s-1.05.75-1.75.75" fill="#c9a000"/><path d="M28,22.11c1.3,5.93-.52,11.23-5.45,15.9-.5.47-1.07.72-1.7.75-.7-.03-1.3-.3-1.8-.8-.5-.5-.75-1.1-.75-1.8.03-.7.3-1.28.8-1.75,3.97-3.77,4.25-7.27.85-10.5l8.05-1.8" fill="#c9a000"/></g></g></svg>