<?xml version="1.0" encoding="UTF-8"?><svg id="Calque_2" xmlns="http://www.w3.org/2000/svg" viewBox="0 0 75.9 53.16"><g id="Calque_1-2"><g id="spider_walk2"><path d="M34.55,35.41l1.1,17.75h-8.7l2.15-17.75h5.45" fill="#775e00"/><path d="M14.25,1.81c1.03-2.23,2.83-2.4,5.4-.5l15.15,19.25c.97.97,1.38,2.03,1.25,3.2l-.05.35c-.17,2.3-.97,3.52-2.4,3.65-1.77-.03-3.28-.92-4.55-2.65l-10.5-16.05-7.05,36.65L0,40.66,14.25,1.81" fill="#775e00"/><path d="M48.05,30.41h7.8l3.05,17.75h-12.45l1.6-17.75" fill="#775e00"/><path d="M34.85,6.36c2.23-.27,4.52,0,6.85.8l.95.4.85.25.3.15,1.65.8c3.23,1.43,6.05,3.12,8.45,5.05,1.9,1.57,3.57,3.22,5,4.95,3.87,4.77,5.03,9.12,3.5,13.05-1.53,3.9-5.33,6.27-11.4,7.1-5.13.67-10.58.1-16.35-1.7l-.8-.25-1.6-.6-.85-.3-.95-.4c-3.7-1.6-6.32-4.23-7.85-7.9-1.73-3.93-1.83-7.85-.3-11.75,1.57-3.9,4.3-6.72,8.2-8.45,1.43-.6,2.88-1,4.35-1.2" fill="#c9a000"/><path d="M31.6,19.16c.93.37,1.62,1,2.05,1.9.37.97.4,1.9.1,2.8-.37.9-1.03,1.57-2,2l-2.8.05c-.93-.4-1.6-1.03-2-1.9-.4-1-.42-1.93-.05-2.8.37-.93,1.02-1.6,1.95-2l2.75-.05" fill="#917300"/><path d="M45.85,22.86c.2-1.13.9-1.95,2.1-2.45l19.8-11.6c3-.73,4.7.15,5.1,2.65l3.05,41.7h-12.45l3.25-36.75-14.5,10.55c-1.67,1.1-3.35,1.3-5.05.6-1.37-.7-1.82-2.15-1.35-4.35l.05-.35" fill="#775e00"/><path d="M17.6,38.51c-.5.47-1.08.65-1.75.55-.7-.07-1.28-.37-1.75-.9-.4-.5-.58-1.12-.55-1.85.6-6.7,3.62-11.42,9.05-14.15l3.6,7.45c-4.6-.67-7.17,1.73-7.7,7.2-.07.7-.37,1.27-.9,1.7" fill="#c9a000"/><path d="M23.1,39.26c4.37-3.3,5.03-6.73,2-10.3l8.2-.9c.63,6.03-1.77,11.08-7.2,15.15-.57.43-1.17.63-1.8.6-.67-.13-1.22-.48-1.65-1.05-.43-.53-.62-1.15-.55-1.85.1-.7.43-1.25,1-1.65" fill="#c9a000"/></g></g></svg>