<?xml version="1.0" encoding="UTF-8"?><svg id="Calque_2" xmlns="http://www.w3.org/2000/svg" viewBox="0 0 42.85 41"><g id="Calque_1-2"><g id="tallShroom_red"><path d="M.25,10.75l-.15-.2-.1-.4c.1-2.77,2.18-5.15,6.25-7.15C10.45,1,15.5,0,21.4,0s10.98,1,15.15,3c4.07,2,6.17,4.38,6.3,7.15l-.15.4-.1.2c-.73-2.13-2.75-4.02-6.05-5.65-2.8-1.33-6-2.22-9.6-2.65l-5.55-.35h-.1c-5.87,0-10.88,1-15.05,3l-1.05.6c-1.43.77-2.57,1.6-3.4,2.5-.73.8-1.25,1.65-1.55,2.55" fill="#ef975c"/><path d="M.25,10.75c.3-.9.82-1.75,1.55-2.55.07.57.3,1.05.7,1.45.5.5,1.08.75,1.75.75s1.23-.25,1.7-.75c.5-.47.75-1.03.75-1.7s-.25-1.25-.75-1.75l-.75-.5,1.05-.6c4.17-2,9.18-3,15.05-3l-.05.05c-.73.77-1.1,1.68-1.1,2.75s.37,1.97,1.1,2.7,1.68,1.15,2.75,1.15,1.97-.38,2.7-1.15c.77-.73,1.15-1.63,1.15-2.7,0-.93-.3-1.75-.9-2.45,3.6.43,6.8,1.32,9.6,2.65,3.3,1.63,5.32,3.52,6.05,5.65-.57.53-2.13,1.05-4.7,1.55.27-.4.4-.85.4-1.35,0-.67-.25-1.25-.75-1.75-.47-.47-1.03-.7-1.7-.7s-1.25.23-1.75.7c-.47.5-.7,1.08-.7,1.75s.23,1.23.7,1.7l.15.15-6.15.5-2.6.1-4.1.05-4.95-.05-1.75-.1-8.45-.8c-3.3-.5-5.3-1.08-6-1.75M14.5,6.35c-.77,0-1.42.27-1.95.8-.53.53-.8,1.18-.8,1.95s.27,1.42.8,1.95c.53.53,1.18.8,1.95.8s1.42-.27,1.95-.8c.53-.53.8-1.18.8-1.95s-.27-1.42-.8-1.95c-.53-.53-1.18-.8-1.95-.8" fill="#e86a17"/><path d="M14.5,6.35c.77,0,1.42.27,1.95.8.53.53.8,1.18.8,1.95s-.27,1.42-.8,1.95c-.53.53-1.18.8-1.95.8s-1.42-.27-1.95-.8c-.53-.53-.8-1.18-.8-1.95s.27-1.42.8-1.95c.53-.53,1.18-.8,1.95-.8M37.9,12.3l-1.35.2-2.3.3-.15-.15c-.47-.47-.7-1.03-.7-1.7s.23-1.25.7-1.75c.5-.47,1.08-.7,1.75-.7s1.23.23,1.7.7c.5.5.75,1.08.75,1.75,0,.5-.13.95-.4,1.35M1.8,8.2c.83-.9,1.97-1.73,3.4-2.5l.75.5c.5.5.75,1.08.75,1.75s-.25,1.23-.75,1.7c-.47.5-1.03.75-1.7.75s-1.25-.25-1.75-.75c-.4-.4-.63-.88-.7-1.45M21.3,2.1h.1l5.55.35c.6.7.9,1.52.9,2.45,0,1.07-.38,1.97-1.15,2.7-.73.77-1.63,1.15-2.7,1.15s-1.98-.38-2.75-1.15-1.1-1.63-1.1-2.7.37-1.98,1.1-2.75l.05-.05" fill="#fca66c"/><path d="M25.6,15.9l1.5,25.1h-12.2l1.45-25.35v.25l3.4.3h2.45l3.4-.3" fill="#efebdc"/><path d="M25.6,15.9l-3.4.3h-2.45l-3.4-.3v-.25l.1-2.25,4.95.05,4.1-.05.1,2.5" fill="#e1d7bf"/></g></g></svg>