<?xml version="1.0" encoding="UTF-8"?><svg id="Calque_2" xmlns="http://www.w3.org/2000/svg" viewBox="0 0 42.85 41"><g id="Calque_1-2"><g id="tallShroom_tan"><path d="M.25,10.75l-.15-.2-.1-.4c.1-2.77,2.18-5.15,6.25-7.15C10.45,1,15.5,0,21.4,0s10.98,1,15.15,3c4.07,2,6.17,4.38,6.3,7.15l-.15.4-.1.2c-.73-2.13-2.75-4.02-6.05-5.65-4.17-2-9.22-3-15.15-3s-10.95,1-15.15,3C2.95,6.73.95,8.62.25,10.75M25.5,13.4l.1,2.5-3.4.3h-2.45l-3.35-.3h-.05l.1-2.5,4.95.05,4.1-.05" fill="#e1d7bf"/><path d="M25.5,13.4l-4.1.05-4.95-.05-1.75-.1-8.45-.8c-3.3-.5-5.3-1.08-6-1.75.7-2.13,2.7-4.02,6-5.65,4.2-2,9.25-3,15.15-3s10.98,1,15.15,3c3.3,1.63,5.32,3.52,6.05,5.65-.67.63-2.68,1.22-6.05,1.75l-8.45.8-2.6.1" fill="#d6cdb3"/><path d="M25.6,15.9c-1.6,9-1.1,17.37,1.5,25.1h-12.2c2.27-7.77,2.77-16.13,1.5-25.1l3.35.3h2.45l3.4-.3" fill="#efebdc"/></g></g></svg>