<?xml version="1.0" encoding="UTF-8"?><svg id="Calque_2" xmlns="http://www.w3.org/2000/svg" viewBox="0 0 39 30"><g id="Calque_1-2"><g id="tinyShroom_brown"><path d="M13.4,20.65v-2.55l6.1.2,6.1-.2v2.55l-6.1.2-6.1-.2" fill="#e1d7bf"/><path d="M.1,14.35l-.1-.5v-.05c.1-3.77,2-7,5.7-9.7C9.53,1.37,14.13,0,19.5,0s10,1.37,13.8,4.1c3.7,2.7,5.6,5.93,5.7,9.7v.05l-.1.5c-.43-3.27-2.3-6.1-5.6-8.5-3.8-2.73-8.4-4.1-13.8-4.1s-9.97,1.37-13.8,4.1C2.4,8.25.53,11.08.1,14.35" fill="#bd8853"/><path d="M.1,14.35c.43-3.27,2.3-6.1,5.6-8.5C9.53,3.12,14.13,1.75,19.5,1.75s10,1.37,13.8,4.1c3.3,2.4,5.17,5.23,5.6,8.5-.43,1.03-2.3,1.92-5.6,2.65l-7.7,1.1-6.1.2-6.1-.2-7.7-1.1c-3.3-.73-5.17-1.62-5.6-2.65" fill="#a06d3d"/><path d="M25.6,20.65v9.35h-12.2v-9.35l6.1.2,6.1-.2" fill="#efebdc"/></g></g></svg>