<?xml version="1.0" encoding="UTF-8"?><svg id="Calque_2" xmlns="http://www.w3.org/2000/svg" viewBox="0 0 39 30"><g id="Calque_1-2"><g id="tinyShroom_red"><path d="M4.2,16.65v-.05c.8-.77,1.2-1.72,1.2-2.85,0-1.13-.4-2.1-1.2-2.9-.63-.63-1.42-1-2.35-1.1.93-1.4,2.22-2.7,3.85-3.9C9.53,3.12,14.13,1.75,19.5,1.75s10,1.37,13.8,4.1c3.3,2.4,5.17,5.23,5.6,8.5-.23.57-.92,1.1-2.05,1.6.23-.5.35-1.05.35-1.65,0-1.07-.38-1.98-1.15-2.75s-1.68-1.15-2.75-1.15-1.98.38-2.75,1.15-1.15,1.68-1.15,2.75c0,1.07.38,1.98,1.15,2.75l.5.4-5.45.65-6.1.2-6.1-.2-7.7-1.1-1.5-.35M12.8,6.9c-1.07,0-1.98.38-2.75,1.15s-1.15,1.68-1.15,2.75c0,1.07.38,1.98,1.15,2.75s1.68,1.15,2.75,1.15c1.07,0,1.98-.38,2.75-1.15s1.15-1.68,1.15-2.75-.38-1.98-1.15-2.75-1.68-1.15-2.75-1.15M24,3.75c-.67,0-1.25.23-1.75.7-.47.5-.7,1.08-.7,1.75s.23,1.23.7,1.7c.5.5,1.08.75,1.75.75s1.23-.25,1.7-.75c.5-.47.75-1.03.75-1.7s-.25-1.25-.75-1.75c-.47-.47-1.03-.7-1.7-.7" fill="#e86a17"/><path d="M24,3.75c.67,0,1.23.23,1.7.7.5.5.75,1.08.75,1.75s-.25,1.23-.75,1.7c-.47.5-1.03.75-1.7.75s-1.25-.25-1.75-.75c-.47-.47-.7-1.03-.7-1.7s.23-1.25.7-1.75c.5-.47,1.08-.7,1.75-.7M12.8,6.9c1.07,0,1.98.38,2.75,1.15s1.15,1.68,1.15,2.75-.38,1.98-1.15,2.75-1.68,1.15-2.75,1.15c-1.07,0-1.98-.38-2.75-1.15s-1.15-1.68-1.15-2.75c0-1.07.38-1.98,1.15-2.75s1.68-1.15,2.75-1.15M1.85,9.75c.93.1,1.72.47,2.35,1.1.8.8,1.2,1.77,1.2,2.9,0,1.13-.4,2.08-1.2,2.85v.05C1.83,15.98.47,15.22.1,14.35l-.1-.5v-.05c.03-1.43.33-2.78.9-4.05l.45-.05.5.05M31.05,17.45l-.5-.4c-.77-.77-1.15-1.68-1.15-2.75,0-1.07.38-1.98,1.15-2.75s1.68-1.15,2.75-1.15,1.98.38,2.75,1.15,1.15,1.68,1.15,2.75c0,.6-.12,1.15-.35,1.65l-3.55,1.05-2.25.45" fill="#fca66c"/><path d="M38.9,14.35c-.43-3.27-2.3-6.1-5.6-8.5-3.8-2.73-8.4-4.1-13.8-4.1s-9.97,1.37-13.8,4.1c-1.63,1.2-2.92,2.5-3.85,3.9l-.5-.05-.45.05c.9-2.1,2.5-3.98,4.8-5.65C9.53,1.37,14.13,0,19.5,0s10,1.37,13.8,4.1c3.7,2.7,5.6,5.93,5.7,9.7v.05l-.1.5" fill="#ef975c"/><path d="M13.4,18.1l6.1.2,6.1-.2v2.55l-6.1.2-6.1-.2v-2.55" fill="#e1d7bf"/><path d="M25.6,20.65v9.35h-12.2v-9.35l6.1.2,6.1-.2" fill="#efebdc"/></g></g></svg>