<?xml version="1.0" encoding="UTF-8"?><svg id="Calque_2" xmlns="http://www.w3.org/2000/svg" viewBox="0 0 39 30"><g id="Calque_1-2"><g id="tinyShroom_tan"><path d="M.1,14.35l-.1-.5v-.05c.1-3.77,2-7,5.7-9.7C9.53,1.37,14.13,0,19.5,0s10,1.37,13.8,4.1c2.13,1.57,3.67,3.3,4.6,5.2.7,1.4,1.07,2.9,1.1,4.5v.05l-.1.5c-.17-1.17-.5-2.27-1-3.3-.93-1.9-2.47-3.63-4.6-5.2-3.8-2.73-8.4-4.1-13.8-4.1s-9.97,1.37-13.8,4.1C2.4,8.25.53,11.08.1,14.35M25.6,18.1v2.55l-6.1.2-6.1-.2v-2.55l6.1.2,6.1-.2" fill="#e1d7bf"/><path d="M25.6,18.1l-6.1.2-6.1-.2-7.7-1.1c-3.3-.73-5.17-1.62-5.6-2.65.43-3.27,2.3-6.1,5.6-8.5C9.53,3.12,14.13,1.75,19.5,1.75s10,1.37,13.8,4.1c2.13,1.57,3.67,3.3,4.6,5.2.5,1.03.83,2.13,1,3.3l-1,1.05c-.93.6-2.47,1.13-4.6,1.6l-7.7,1.1" fill="#d6cdb3"/><path d="M25.6,20.65v9.35h-12.2v-9.35l6.1.2,6.1-.2" fill="#efebdc"/></g></g></svg>